<svg width="20" height="14" viewBox="0 0 20 14" fill="none" xmlns="http://www.w3.org/2000/svg">
    <path d="M10.8333 11.2083C11.4444 10.9166 12.0591 10.6978 12.6774 10.5516C13.2952 10.4061 13.9305 10.3333 14.5833 10.3333C15.0833 10.3333 15.573 10.375 16.0524 10.4583C16.5313 10.5416 17.0138 10.6666 17.4999 10.8333V2.58331C17.0416 2.38887 16.566 2.24304 16.0733 2.14581C15.5799 2.04859 15.0833 1.99998 14.5833 1.99998C13.9305 1.99998 13.2846 2.08331 12.6458 2.24998C12.0069 2.41665 11.4027 2.66665 10.8333 2.99998V11.2083ZM9.99992 13.6666C9.33325 13.1389 8.61103 12.7291 7.83325 12.4375C7.05547 12.1458 6.24992 12 5.41659 12C4.68047 12 3.90964 12.1389 3.10409 12.4166C2.29853 12.6944 1.54159 13.125 0.833252 13.7083V1.62498C1.44436 1.20831 2.16325 0.888869 2.98992 0.666646C3.81603 0.444424 4.62492 0.333313 5.41659 0.333313C6.22214 0.333313 7.01047 0.43748 7.78159 0.645813C8.55214 0.854146 9.29159 1.16665 9.99992 1.58331C10.7083 1.16665 11.448 0.854146 12.2191 0.645813C12.9896 0.43748 13.7777 0.333313 14.5833 0.333313C15.3749 0.333313 16.1841 0.444424 17.0108 0.666646C17.8369 0.888869 18.5555 1.20831 19.1666 1.62498V13.7083C18.4721 13.125 17.7188 12.6944 16.9066 12.4166C16.0938 12.1389 15.3194 12 14.5833 12C13.7499 12 12.9444 12.1458 12.1666 12.4375C11.3888 12.7291 10.6666 13.1389 9.99992 13.6666Z" fill="black" />
</svg>