<svg width="16" height="16" viewBox="0 0 16 16" fill="none" xmlns="http://www.w3.org/2000/svg">
    <path d="M2.10711 0.142883C1.58615 0.142883 1.08652 0.349834 0.718148 0.718209C0.349773 1.08658 0.142822 1.58621 0.142822 2.10717V13.8929C0.142822 14.4138 0.349773 14.9135 0.718148 15.2818C1.08652 15.6502 1.58615 15.8572 2.10711 15.8572H13.8928C14.4138 15.8572 14.9134 15.6502 15.2818 15.2818C15.6502 14.9135 15.8571 14.4138 15.8571 13.8929V9.4286C15.8571 8.90764 15.6502 8.40801 15.2818 8.03964C14.9134 7.67126 14.4138 7.46431 13.8928 7.46431H8.53568V2.10717C8.53568 1.58621 8.32873 1.08658 7.96035 0.718209C7.59198 0.349834 7.09235 0.142883 6.57139 0.142883H2.10711ZM7.46425 7.46431H1.21425V2.10717C1.21425 1.61431 1.61425 1.21431 2.10711 1.21431H6.57139C7.06425 1.21431 7.46425 1.61431 7.46425 2.10717V7.46431ZM8.53568 14.7857V8.53574H13.8928C14.3857 8.53574 14.7857 8.93574 14.7857 9.4286V13.8929C14.7857 14.3857 14.3857 14.7857 13.8928 14.7857H8.53568ZM7.46425 14.7857H2.10711C1.61425 14.7857 1.21425 14.3857 1.21425 13.8929V8.53574H7.46425V14.7857Z" fill="black" fill-opacity="0.9" />
</svg>