<svg width="19" height="18" viewBox="0 0 19 18" fill="none" xmlns="http://www.w3.org/2000/svg">
<path d="M16 0H5C3.346 0 2 1.346 2 3V4H1C0.734784 4 0.48043 4.10536 0.292893 4.29289C0.105357 4.48043 0 4.73478 0 5C0 5.26522 0.105357 5.51957 0.292893 5.70711C0.48043 5.89464 0.734784 6 1 6H2V8H1C0.734784 8 0.48043 8.10536 0.292893 8.29289C0.105357 8.48043 0 8.73478 0 9C0 9.26522 0.105357 9.51957 0.292893 9.70711C0.48043 9.89464 0.734784 10 1 10H2V12H1C0.734784 12 0.48043 12.1054 0.292893 12.2929C0.105357 12.4804 0 12.7348 0 13C0 13.2652 0.105357 13.5196 0.292893 13.7071C0.48043 13.8946 0.734784 14 1 14H2V15C2 16.654 3.346 18 5 18H16C17.654 18 19 16.654 19 15V3C19 1.346 17.654 0 16 0ZM4 3C4 2.449 4.449 2 5 2V4H4V3ZM4 6H5V8H4V6ZM4 10H5V12H4V10ZM4 15V14H5V16C4.449 16 4 15.551 4 15ZM17 15C17 15.551 16.551 16 16 16H6V2H16C16.551 2 17 2.449 17 3V15Z" fill="black" fill-opacity="0.9"/>
</svg>
