<svg width="24" height="24" viewBox="0 0 24 24" fill="none" xmlns="http://www.w3.org/2000/svg"><path d="M19.7996 13.6C19.8496 13.25 19.8996 12.9 19.8996 12.5C19.8996 12.1 19.8496 11.75 19.7996 11.4L22.0496 9.80005C22.2496 9.65005 22.3496 9.35005 22.1996 9.10005L19.9996 5.40005C19.8496 5.15005 19.5996 5.05005 19.3496 5.20005L16.8496 6.35005C16.2496 5.90005 15.6496 5.55005 14.9496 5.25005L14.6996 2.50005C14.6496 2.25005 14.4496 2.05005 14.1996 2.05005H9.89957C9.64957 2.05005 9.39957 2.25005 9.39957 2.50005L9.14957 5.25005C8.44957 5.55005 7.79957 5.90005 7.24957 6.35005L4.74957 5.20005C4.49957 5.10005 4.19957 5.20005 4.09957 5.40005L1.94957 9.10005C1.79957 9.35005 1.89957 9.65005 2.09957 9.80005L4.34957 11.4C4.29957 11.75 4.24957 12.1 4.24957 12.5C4.24957 12.9 4.29957 13.25 4.34957 13.6L1.99957 15.2C1.79957 15.35 1.69957 15.65 1.84957 15.9L3.99957 19.6C4.14957 19.85 4.39957 19.95 4.64957 19.8L7.14957 18.65C7.74957 19.1 8.34957 19.4501 9.04957 19.75L9.29957 22.5C9.34957 22.75 9.54957 22.9501 9.79957 22.9501H14.0996C14.3496 22.9501 14.5996 22.75 14.5996 22.5L14.8496 19.75C15.5496 19.4501 16.1996 19.1 16.7496 18.65L19.2496 19.8C19.4996 19.9 19.7996 19.8001 19.8996 19.6L22.0496 15.9C22.1996 15.65 22.0996 15.35 21.8996 15.2L19.7996 13.6Z" fill="#E7F7FF"></path><path d="M12 17.5C9.25 17.5 7 15.25 7 12.5C7 9.75 9.25 7.5 12 7.5C14.75 7.5 17 9.75 17 12.5C17 15.25 14.75 17.5 12 17.5Z" fill="#E7F7FF"></path><path d="M12 6.5C8.7 6.5 6 9.2 6 12.5C6 15.8 8.7 18.5 12 18.5C15.3 18.5 18 15.8 18 12.5C18 9.2 15.3 6.5 12 6.5ZM12 15C10.6 15 9.5 13.9 9.5 12.5C9.5 11.1 10.6 10 12 10C13.4 10 14.5 11.1 14.5 12.5C14.5 13.9 13.4 15 12 15Z" fill="#82A7B9"></path></svg>