<svg width="96" height="96" viewBox="0 0 96 96" fill="none" xmlns="http://www.w3.org/2000/svg">
<path d="M5.58804 92.4525C7.29054 94.2975 14.303 91.08 19.838 88.5C23.9855 86.5725 40.583 79.7625 48.833 76.23C51.0605 75.2775 54.3005 74.0325 56.633 70.965C58.703 68.235 64.193 56.64 53.138 44.895C41.918 32.97 30.3605 36.2625 26.0405 39.3225C23.498 41.1225 21.428 45.18 20.498 47.2425C16.568 55.9575 10.9655 71.925 8.68554 78.2025C7.01304 82.83 3.90054 90.6225 5.58804 92.4525Z" fill="#FFC107"/>
<path d="M19.3881 49.8675C19.4931 51.1725 19.7556 53.295 20.6556 57.3825C21.2706 60.1875 22.2756 63.1275 23.0931 65.07C25.5456 70.9125 28.9881 73.2675 32.4756 75.1575C38.4006 78.3675 42.4281 78.9675 42.4281 78.9675L37.5981 80.94C37.5981 80.94 34.6731 80.3325 30.6831 78.3675C26.8806 76.4925 22.9206 73.32 20.0256 67.11C18.7731 64.4175 18.0456 61.8075 17.6256 59.7375C17.1081 57.1725 17.0256 55.7175 17.0256 55.7175L19.3881 49.8675ZM13.4556 65.0775C13.4556 65.0775 14.0556 69.945 18.0756 76.0875C22.7856 83.2725 29.3631 84.45 29.3631 84.45L24.9906 86.25C24.9906 86.25 20.1081 84.7575 15.4656 78.42C12.5706 74.4675 11.7606 69.7425 11.7606 69.7425L13.4556 65.0775ZM9.29312 76.6125C9.29312 76.6125 10.3881 80.8125 12.7881 83.9475C15.6456 87.69 19.2831 88.7775 19.2831 88.7775L15.9306 90.2625C15.9306 90.2625 13.3881 89.73 10.6056 86.205C8.49062 83.5275 7.89062 80.4525 7.89062 80.4525L9.29312 76.6125Z" fill="#FF8F00"/>
<path opacity="0.44" d="M7.47095 87.2775C7.32095 86.94 7.32095 86.5575 7.47845 86.2275L26.581 46.6125L29.7235 58.425L9.62345 87.4575C9.08345 88.2675 7.86845 88.1625 7.47095 87.2775Z" fill="#FFFDE7"/>
<path d="M31.2367 62.3925C40.1617 72.8325 50.3242 71.5275 53.7067 68.8875C57.0967 66.24 59.7742 57.1425 50.8867 46.875C41.5717 36.12 31.0267 39.1875 28.5892 41.5125C26.1517 43.8375 23.0467 52.815 31.2367 62.3925Z" fill="url(#paint0_linear_10814_18421)"/>
<path d="M61.8901 66.69C58.6351 63.96 56.9026 64.4475 54.5776 65.415C51.5776 66.66 46.8601 67.5825 40.4551 65.415L42.3826 60.7725C46.1851 62.055 48.9376 61.4325 51.3151 60.03C54.3751 58.23 58.5601 55.7625 65.0701 61.23C67.7851 63.51 70.5676 65.025 72.6076 64.335C74.0926 63.84 74.8801 61.6275 75.2776 59.865C75.3151 59.7075 75.3751 59.2575 75.4201 58.86C75.7801 56.1075 76.3801 50.1675 80.8051 47.13C85.5376 43.8825 90.5101 43.8825 90.5101 43.8825L91.4101 52.8225C89.1226 52.485 87.5326 52.95 86.1901 53.6925C81.1351 56.505 85.5376 67.305 77.6701 70.935C70.1026 74.4525 63.9151 68.385 61.8901 66.69Z" fill="#03A9F4"/>
<path d="M34.05 55.29L30.795 52.3725C36.7725 45.6975 35.1975 40.7925 34.05 37.2225C33.8175 36.5025 33.6 35.82 33.4575 35.1675C32.9475 32.8575 32.8424 30.8475 32.9999 29.0925C30.7049 26.235 29.6924 23.2425 29.6249 23.04C28.2299 18.8175 29.2799 14.7 31.6874 10.8375C36.5549 3 45.3675 3 45.3675 3L48.3075 10.8675C46.0725 10.7775 38.7449 10.89 36.4949 14.4375C33.6524 18.9075 35.52 21.6675 35.655 21.9825C36.2025 21.27 36.7574 20.7 37.2524 20.2575C40.8449 17.07 43.965 16.6125 45.9525 16.7925C48.1875 16.995 50.2124 18.12 51.6599 19.965C53.2424 21.99 53.895 24.6225 53.3925 27.015C52.905 29.3475 51.3525 31.32 49.02 32.5725C44.9475 34.7625 41.5575 34.4625 39.285 33.705C39.3 33.7575 39.3074 33.8175 39.3224 33.87C39.405 34.245 39.57 34.77 39.7649 35.3775C41.0925 39.4875 43.56 46.0125 34.05 55.29ZM39.5624 27.1425C39.9974 27.4575 40.4549 27.72 40.9274 27.9075C42.5024 28.5375 44.22 28.3275 46.17 27.2775C47.3175 26.6625 47.4525 26.0025 47.4975 25.785C47.6325 25.1325 47.4075 24.3 46.92 23.6775C46.4925 23.13 45.9975 22.845 45.405 22.785C44.28 22.6875 42.7575 23.4 41.235 24.7575C40.5075 25.41 39.9524 26.2125 39.5624 27.1425Z" fill="#F44336"/>
<path d="M47.0774 56.5125L42.4199 56.385C42.4199 56.385 44.6324 43.89 51.7949 41.79C53.1374 41.4 54.6074 41.0025 56.0849 40.785C56.9624 40.65 58.3499 40.4475 59.0324 40.1925C59.1899 39.015 58.6949 37.515 58.1399 35.8125C57.7049 34.4925 57.2549 33.135 57.0149 31.65C56.5499 28.755 57.3224 26.1975 59.1899 24.435C61.4699 22.2975 65.1524 21.615 69.3074 22.56C71.6774 23.1 73.4249 24.2625 74.9624 25.2825C77.1599 26.745 78.4424 27.4875 81.1274 25.68C84.3749 23.49 80.1299 14.9175 77.8724 9.96749L86.2949 6.45749C87.4274 8.93249 92.8949 21.6675 89.2874 28.935C88.0724 31.38 85.9799 33 83.2349 33.6075C77.2649 34.9425 73.7699 32.6175 71.2199 30.9225C70.0124 30.12 68.9549 29.49 67.8074 29.16C59.8349 26.8875 70.9649 38.6175 65.7524 43.89C62.6249 47.0475 54.9824 47.88 54.4874 48C49.5674 49.185 47.0774 56.5125 47.0774 56.5125Z" fill="#F48FB1"/>
<path d="M32.9916 29.0925C32.8491 30.7425 32.7816 31.725 33.2091 33.87C35.2716 35.385 39.7641 35.385 39.7641 35.385C39.5691 34.7775 39.3966 34.2525 39.3216 33.8775C39.3066 33.825 39.2991 33.765 39.2841 33.7125C34.7166 31.4325 32.9916 29.0925 32.9916 29.0925Z" fill="#C92B27"/>
<path d="M23.6476 36.48L15.8926 32.6775L19.7551 27.0975L25.8376 31.125L23.6476 36.48Z" fill="#FFC107"/>
<path d="M12.2168 25.95C8.2568 25.4175 4.2218 22.0575 3.7793 21.675L7.6718 17.1075C8.8493 18.105 11.3468 19.7775 13.0193 20.0025L12.2168 25.95Z" fill="#FB8C00"/>
<path d="M19.2078 15.9525L13.5078 14.085C14.1603 12.09 14.3328 9.9375 13.9953 7.86L19.9203 6.9075C20.4078 9.9225 20.1603 13.05 19.2078 15.9525Z" fill="#03A9F4"/>
<path d="M54.8047 11.4937L60.6659 10.2112L62.3587 17.9482L56.4974 19.2307L54.8047 11.4937Z" fill="#FB8C00"/>
<path d="M69.3457 13.3275L65.2207 8.97C67.3807 6.9225 67.8757 4.245 67.8757 4.215L73.8007 5.1825C73.7257 5.655 72.9682 9.9 69.3457 13.3275Z" fill="#FFC107"/>
<path d="M71.6348 36.435L76.875 34.797L78.6645 40.524L73.4243 42.162L71.6348 36.435Z" fill="#FB8C00"/>
<path d="M73.1625 84.7725L67.2 84.0675C67.455 81.945 65.8725 79.3425 65.4375 78.765L70.2375 75.165C70.5975 75.6375 73.725 79.965 73.1625 84.7725Z" fill="#F44336"/>
<path d="M90.2784 77.1675C88.0359 76.83 85.7409 76.695 83.4759 76.7775L83.2734 70.7775C85.9059 70.6875 88.5684 70.8375 91.1709 71.235L90.2784 77.1675Z" fill="#FB8C00"/>
<path d="M82.2109 85.4265L86.4259 81.1567L92.2272 86.8852L88.0122 91.1542L82.2109 85.4265Z" fill="#F48FB1"/>
<path d="M69.8278 47.5005L74.1628 52.4572L69.2061 56.7922L64.8711 51.8355L69.8278 47.5005Z" fill="#F44336"/>
<defs>
<linearGradient id="paint0_linear_10814_18421" x1="55.7872" y1="46.3792" x2="33.4619" y2="59.7742" gradientUnits="userSpaceOnUse">
<stop offset="0.024" stop-color="#8F4700"/>
<stop offset="1" stop-color="#703E2D"/>
</linearGradient>
</defs>
</svg>
